<svg id="Capa_1" enable-background="new 0 0 511.533 511.533" height="512" viewBox="0 0 511.533 511.533" width="512" xmlns="http://www.w3.org/2000/svg"><g><g><path d="m450.669 43.353v154.4h-41.92v-154.4c0-7.76 4.22-14.54 10.49-18.15 3.08-1.79 6.66-2.81 10.47-2.81 11.58-.001 20.96 9.38 20.96 20.96z" fill="#ffcebf"/><path d="m450.669 43.353v154.4c-11.576 0-20.96-9.384-20.96-20.96v-133.44c0-7.76-4.21-14.52-10.47-18.15 3.371-1.959 7.341-2.996 11.556-2.783 11.226.568 19.874 9.863 19.874 20.933z" fill="#ffb09e"/><path d="m408.749 27.993v169.76h-41.92v-169.76c0-7.98 4.46-14.92 11.03-18.45 2.96-1.61 6.34-2.51 9.93-2.51 11.58 0 20.96 9.379 20.96 20.96z" fill="#ffcebf"/><path d="m387.789 7.033c-3.59 0-6.97.9-9.93 2.51 6.56 3.54 11.01 10.47 11.01 18.45v169.76h19.88v-169.76c0-11.581-9.38-20.96-20.96-20.96z" fill="#ffb09e"/><path d="m366.829 43.353v154.4h-41.92v-154.4c0-7.76 4.22-14.54 10.49-18.15 3.08-1.79 6.66-2.81 10.47-2.81 11.58-.001 20.96 9.38 20.96 20.96z" fill="#ffcebf"/><path d="m345.869 22.392c-3.81 0-7.39 1.02-10.47 2.81 6.26 3.63 10.47 10.39 10.47 18.15v154.4h20.96v-154.4c0-11.579-9.38-20.96-20.96-20.96z" fill="#ffb09e"/><path d="m324.909 72.482v125.27h-41.92v-125.27c0-7.76 4.22-14.53 10.49-18.14 3.08-1.79 6.66-2.81 10.47-2.81 11.58.001 20.96 9.38 20.96 20.95z" fill="#ffcebf"/><path d="m303.949 51.533c-3.81 0-7.39 1.02-10.47 2.81 6.27 3.62 10.48 10.39 10.48 18.14v125.27h20.95v-125.271c0-11.57-9.38-20.949-20.96-20.949z" fill="#ffb09e"/><path d="m226.759 197.753v265.71h-167.68v-58.21c0-14.85-4.78-29.31-13.62-41.24l-23.33-31.45c-4.61-6.22-7.11-13.77-7.11-21.52v-113.29z" fill="#ffcebf"/><path d="m198.759 197.753h28v265.71h-28z" fill="#ffb09e"/><path d="m100.999 43.353v154.4h-41.92v-154.4c0-7.76 4.22-14.53 10.48-18.15 3.08-1.79 6.66-2.81 10.48-2.81 11.58-.001 20.96 9.38 20.96 20.96z" fill="#ffcebf"/><path d="m100.999 43.353v154.4c-11.576 0-20.96-9.384-20.96-20.96v-133.44c0-7.76-4.21-14.53-10.48-18.15 3.043-1.768 6.573-2.785 10.342-2.81 11.605-.075 21.098 9.354 21.098 20.96z" fill="#ffb09e"/><path d="m142.919 27.993v169.76h-41.92v-169.76c0-7.76 4.22-14.53 10.48-18.15 3.08-1.79 6.66-2.81 10.48-2.81 11.58 0 20.96 9.379 20.96 20.96z" fill="#ffcebf"/><path d="m121.959 7.033c-3.82 0-7.4 1.02-10.48 2.81 6.27 3.62 10.48 10.39 10.48 18.15v169.76h20.96v-169.76c0-11.581-9.38-20.96-20.96-20.96z" fill="#ffb09e"/><path d="m184.839 43.353v154.4h-41.92v-154.4c0-7.76 4.22-14.53 10.48-18.15 3.08-1.79 6.66-2.81 10.48-2.81 11.58-.001 20.96 9.38 20.96 20.96z" fill="#ffcebf"/><path d="m163.879 22.392c-3.82 0-7.4 1.02-10.48 2.81 6.27 3.62 10.48 10.39 10.48 18.15v154.4h20.96v-154.4c0-11.579-9.38-20.96-20.96-20.96z" fill="#ffb09e"/><path d="m226.759 72.482v125.27h-41.92v-125.27c0-7.75 4.22-14.52 10.48-18.14 3.08-1.79 6.66-2.81 10.48-2.81 11.58.001 20.96 9.38 20.96 20.95z" fill="#ffcebf"/><path d="m205.799 51.533c-3.82 0-7.4 1.02-10.48 2.81 6.27 3.62 10.48 10.39 10.48 18.14v125.27h20.96v-125.271c0-11.57-9.38-20.949-20.96-20.949z" fill="#ffb09e"/><path d="m83.589 304.462h-68.57v-143.98c0-8.97 4.85-16.8 12.07-21.01 3.6-2.12 7.79-3.32 12.26-3.32 6.08 0 11.69 2.24 15.99 6 4.3 3.75 7.29 9 8.11 15.03z" fill="#ffcebf"/><path d="m69.673 304.462c-6.07 0-11.208-4.483-12.03-10.497l-18.704-136.783c-.83-6.03-3.81-11.28-8.11-15.03-1.16-1.01-2.41-1.91-3.74-2.68 3.6-2.12 7.79-3.32 12.26-3.32 6.08 0 11.69 2.24 15.99 6 4.3 3.75 7.29 9 8.11 15.03l18.255 133.493c.996 7.292-4.671 13.787-12.031 13.787z" fill="#ffb09e"/><path d="m226.759 463.462v40.571h-167.68v-40.571l83.84-8.263z" fill="#80d261"/><path d="m198.759 463.462v34.185c0 3.526-2.859 6.385-6.385 6.385h34.385v-40.57l-15.72-4.766z" fill="#4fc123"/><path d="m237.989 425.432v28.12c0 5.47-4.43 9.91-9.9 9.91h-170.34c-5.47 0-9.9-4.44-9.9-9.91v-28.12c0-5.47 4.43-9.9 9.9-9.9h170.34c5.47.001 9.9 4.43 9.9 9.9z" fill="#fef6ad"/><path d="m228.089 415.533h-25.5c5.47 0 9.9 4.43 9.9 9.9v28.12c0 5.47-4.43 9.91-9.9 9.91h25.5c5.47 0 9.9-4.44 9.9-9.91v-28.12c0-5.471-4.43-9.9-9.9-9.9z" fill="#fef056"/><path d="m450.679 463.462v40.571h-167.68v-40.571l90.88-4.766z" fill="#80d261"/><path d="m422.559 463.462v34.185c0 3.526-2.859 6.385-6.385 6.385h34.505v-40.57l-15.725-4.766z" fill="#4fc123"/><g fill="#ffcebf"><path d="m494.739 197.753v113.29c0 7.75-2.5 15.3-7.11 21.52l-23.33 31.45c-8.85 11.93-13.62 26.39-13.62 41.24v58.21h-167.68v-265.71z"/><path d="m426.166 304.465h68.565v-143.985c0-13.433-10.89-24.323-24.323-24.323-12.16 0-22.451 8.98-24.099 21.027z"/><path d="m494.739 197.753v113.29c0 7.75-2.5 15.3-7.11 21.52l-23.33 31.45c-8.85 11.93-13.62 26.39-13.62 41.24v58.21h-167.68v-265.71h157.76l5.55-40.57c.82-6.03 3.81-11.28 8.11-15.03.62-.54 1.26-1.05 1.93-1.52 3.99-2.84 8.85-4.48 14.06-4.48 13.43 0 24.32 10.89 24.32 24.33v37.27z"/></g><path d="m494.729 197.753v-37.27c0-13.44-10.89-24.33-24.32-24.33-5.21 0-10.07 1.64-14.06 4.48 6.21 4.4 10.26 11.65 10.26 19.85v37.27h.01v113.29c0 7.75-2.5 15.3-7.11 21.52l-23.33 31.45c-8.85 11.93-13.62 26.39-13.62 41.24v58.21h28.12v-58.21c0-14.85 4.77-29.31 13.62-41.24l23.33-31.45c4.61-6.22 7.11-13.77 7.11-21.52v-113.29z" fill="#ffb09e"/><path d="m461.909 425.432v28.12c0 5.47-4.44 9.91-9.91 9.91h-170.33c-5.47 0-9.9-4.44-9.9-9.91v-28.12c0-5.47 4.43-9.9 9.9-9.9h170.33c5.47.001 9.91 4.43 9.91 9.9z" fill="#fef6ad"/><path d="m451.999 415.533h-26.95c5.46 0 9.9 4.43 9.9 9.9v28.12c0 5.47-4.44 9.91-9.9 9.91h26.95c5.47 0 9.91-4.44 9.91-9.91v-28.12c0-5.471-4.44-9.9-9.91-9.9z" fill="#fef056"/><path d="m381.799 262.763-102.47 102.48c-10.41 10.41-25.81 12.79-38.51 7.14-.18-.07-.36-.16-.54-.24-3.56-1.66-6.91-3.96-9.85-6.9l-102.47-102.48c-35.21-35.2-36.23-92.57-1.28-128.04 31.72-32.19 81.54-35.52 117.01-9.99 6.66 4.79 15.71 4.79 22.38 0 11.31-8.14 24.08-13.35 37.25-15.63.45-.08.89-.15 1.34-.22 27.75-4.36 57.15 4.26 78.41 25.84 34.95 35.469 33.94 92.84-1.27 128.04z" fill="#fb2b3a"/><path d="m353.679 262.763-102.47 102.48c-3.09 3.09-6.62 5.48-10.39 7.14-.18-.07-.36-.16-.54-.24-3.56-1.66-6.91-3.96-9.85-6.9l-102.47-102.48c-35.21-35.2-36.23-92.57-1.28-128.04 31.72-32.19 81.54-35.52 117.01-9.99 6.66 4.79 15.71 4.79 22.38 0 11.31-8.14 24.08-13.35 37.25-15.63.45-.08.89-.15 1.34-.22 18.44 2.88 36.16 11.5 50.3 25.84 34.95 35.469 33.93 92.84-1.28 128.04z" fill="#fd4755"/></g><g><path d="m503.121 160.481c0-22.264-23.478-38.001-44.061-29.348v-44.792c0-9.675-15-9.675-15 0v57.725c-2.192 3.614-3.69 7.706-4.292 12.102l-20.143 147.279c-1.298 9.485 13.547 11.643 14.861 2.033l20.143-147.279c2.74-20.036 33.491-17.989 33.491 2.279v143.983c0 8.475-.307 16.447-5.631 23.631-18.347 24.737-38.62 47.142-38.426 79.938h-152.68v-43.355l30.986-30.986c6.841-6.842-3.765-17.447-10.606-10.607l-33.18 33.18c-13.96 14.891-31.657 14.377-45.635 0l-98.801-98.801c-32.491-32.491-33.044-85.189-1.233-117.473 28.363-28.79 74.445-32.807 107.283-9.169 9.312 6.696 21.825 6.698 31.137 0 32.686-23.508 79.066-19.482 107.285 9.169 31.811 32.283 31.257 84.981-1.234 117.473l-41.06 41.06c-6.841 6.842 3.765 17.447 10.606 10.607l41.06-41.06c18.501-18.501 29.149-44.139 29.149-70.318v-154.4c0-17.355 26.919-17.355 26.919 0v8.181c0 9.675 15 9.675 15 0v-8.181c0-21.781-24.749-35.707-43.347-24.243-8.392-25.47-45.667-25.486-54.064 0-21.762-13.413-43.842 5.719-43.347 28.31-18.617-10.037-41.919 4.003-41.919 25.069v37.885c-4.825 2.375-9.453 5.139-13.807 8.27-4.072 2.931-9.545 2.931-13.618.002-4.382-3.154-9.008-5.905-13.808-8.269v-37.888c0-21.065-23.297-35.108-41.919-25.068.42-22.558-21.525-41.76-43.347-28.311-8.391-25.47-45.667-25.487-54.064 0-18.589-11.458-43.346 2.452-43.346 24.243v87.781c-20.577-8.651-44.061 7.078-44.061 29.348l-.003 150.561c0 9.289 3.049 18.518 8.586 25.988 16.57 22.341 35.849 42.543 35.474 72.154-6.554 2.499-11.23 8.831-11.23 16.251v28.121c0 7.42 4.676 13.753 11.23 16.251v34.224c0 4.143 3.358 7.5 7.5 7.5h94.32c9.675 0 9.675-15 0-15h-86.82v-25.571h152.68v25.572h-32.27c-9.674 0-9.674 15 0 15h39.77c4.142 0 7.5-3.357 7.5-7.5v-34.224c6.554-2.499 11.23-8.831 11.23-16.251v-28.121c0-7.42-4.676-13.753-11.23-16.251v-31.713c12.669 7.13 28.564 7.068 41.235-.03v31.743c-6.553 2.498-11.23 8.831-11.23 16.251v28.121c0 7.42 4.677 13.753 11.23 16.251v34.224c0 4.143 3.358 7.5 7.5 7.5h167.68c4.142 0 7.5-3.357 7.5-7.5v-34.224c6.554-2.499 11.23-8.831 11.23-16.251v-28.121c0-7.42-4.676-13.753-11.23-16.251-.31-29.629 18.885-49.787 35.475-72.156 5.536-7.469 8.584-16.697 8.584-25.986zm-127.9-132.488c0-17.355 26.919-17.355 26.919 0v117.677c-6.967-11.04-16.178-20.611-26.919-28.029zm-41.919 15.359c0-17.355 26.919-17.355 26.919 0v65.775c-8.539-3.893-17.607-6.538-26.919-7.857zm-41.92 29.136c0-17.355 26.919-17.355 26.919 0v27.82c-9.117.117-18.192 1.514-26.919 4.154zm-84.692-13.46c7.422 0 13.46 6.038 13.46 13.46v31.99c-8.696-2.618-17.755-4.04-26.919-4.166v-27.824c0-7.422 6.038-13.46 13.459-13.46zm-41.919-29.136c7.421 0 13.459 6.038 13.459 13.46v57.919c-9.351 1.318-18.413 3.973-26.919 7.857v-65.776c0-7.422 6.038-13.46 13.46-13.46zm-55.379-1.899c0-17.355 26.919-17.355 26.919 0v89.657c-10.741 7.425-19.949 16.977-26.919 28.021zm-57.022 331.555-23.326-31.451c-5.294-7.144-5.632-15.177-5.632-23.633v-143.983c0-20.2 30.742-22.386 33.491-2.279l20.143 147.279c1.296 9.477 16.179 7.597 14.861-2.033l-20.143-147.279c-.601-4.396-2.099-8.488-4.292-12.103v-100.714c0-17.355 26.919-17.355 26.919 0v154.399c0 26.181 10.647 51.817 29.149 70.318l96.607 96.606v43.356h-152.679c.149-17.446-4.625-34.362-15.098-48.483zm176.605 63.485c1.326 0 2.404 1.078 2.404 2.403v28.121c0 1.325-1.078 2.403-2.404 2.403h-170.333c-1.326 0-2.404-1.078-2.404-2.403v-28.121c0-1.325 1.078-2.403 2.404-2.403zm223.915 0c1.326 0 2.404 1.078 2.404 2.403v28.121c0 1.325-1.078 2.403-2.404 2.403h-170.333c-1.325 0-2.403-1.078-2.403-2.403v-28.121c0-1.325 1.078-2.403 2.403-2.403zm-161.506 73.5v-25.573h152.68v25.572h-152.68z"/></g></g></svg>